<svg width="215" height="50" viewBox="0 0 215 50" fill="none" xmlns="http://www.w3.org/2000/svg">
<g clip-path="url(#clip0)">
<path d="M64.2526 22.324L61.6786 29.188H66.8786L64.2526 22.324ZM65.5786 18.32L72.4166 35.584L69.4786 36L67.7886 31.554H60.8206L59.1566 36H56.2446L63.0046 18.32H65.5786ZM82.8891 34.7C82.3171 35.2373 81.6324 35.6707 80.8351 36C80.0378 36.312 79.3011 36.468 78.6251 36.468C76.9958 36.468 75.8258 35.9913 75.1151 35.038C74.4044 34.0847 74.0491 32.9147 74.0491 31.528V23.39H77.0131V31.346C77.0131 32.1433 77.2038 32.7847 77.5851 33.27C77.9838 33.738 78.5731 33.972 79.3531 33.972C79.8038 33.972 80.3064 33.8507 80.8611 33.608C81.4158 33.3653 81.9271 33.062 82.3951 32.698V23.39H85.3331V36H83.7211L82.8891 34.7ZM94.4969 25.444C93.2489 25.444 92.3822 25.886 91.8969 26.77C91.4116 27.6367 91.1689 28.59 91.1689 29.63C91.1689 30.7567 91.3942 31.736 91.8449 32.568C92.3129 33.4 93.1969 33.816 94.4969 33.816C94.9302 33.816 95.3809 33.7207 95.8489 33.53C96.3342 33.322 96.7849 33.062 97.2009 32.75V26.51C96.7849 26.1807 96.3342 25.9207 95.8489 25.73C95.3809 25.5393 94.9302 25.444 94.4969 25.444ZM100.165 17.644V36H98.5789L97.7729 34.804C97.2182 35.2893 96.5682 35.662 95.8229 35.922C95.0776 36.182 94.3929 36.312 93.7689 36.312C91.9316 36.312 90.5276 35.6793 89.5569 34.414C88.6036 33.1313 88.1269 31.5367 88.1269 29.63C88.1269 27.7233 88.6296 26.1373 89.6349 24.872C90.6576 23.5893 92.0789 22.948 93.8989 22.948C94.3842 22.948 94.9302 23.0433 95.5369 23.234C96.1436 23.4073 96.6982 23.6587 97.2009 23.988V17.93L100.165 17.644ZM105.16 21.362C104.674 21.362 104.267 21.1973 103.938 20.868C103.608 20.5387 103.444 20.1313 103.444 19.646C103.426 19.1607 103.582 18.7533 103.912 18.424C104.258 18.0773 104.674 17.904 105.16 17.904C105.645 17.904 106.052 18.0773 106.382 18.424C106.728 18.7533 106.902 19.1607 106.902 19.646C106.902 20.1313 106.728 20.5387 106.382 20.868C106.052 21.1973 105.645 21.362 105.16 21.362ZM103.678 36V23.39H106.642V36H103.678ZM115.534 36.312C113.575 36.2947 112.067 35.688 111.01 34.492C109.952 33.2787 109.424 31.6667 109.424 29.656C109.441 27.68 110.004 26.094 111.114 24.898C112.223 23.6847 113.766 23.0693 115.742 23.052C117.77 23.052 119.33 23.676 120.422 24.924C121.514 26.172 122.06 27.7927 122.06 29.786C122.042 31.762 121.444 33.348 120.266 34.544C119.087 35.7227 117.51 36.312 115.534 36.312ZM119.044 29.786C119.044 28.5207 118.775 27.5067 118.238 26.744C117.718 25.964 116.912 25.574 115.82 25.574C114.728 25.574 113.896 25.9293 113.324 26.64C112.752 27.3333 112.466 28.33 112.466 29.63C112.466 30.9473 112.708 31.9787 113.194 32.724C113.679 33.452 114.468 33.816 115.56 33.816C116.652 33.816 117.501 33.478 118.108 32.802C118.714 32.126 119.026 31.1207 119.044 29.786ZM142.302 21.18C141.591 20.9547 140.984 20.7727 140.482 20.634C139.996 20.4953 139.355 20.426 138.558 20.426C137.05 20.4433 135.871 21.0673 135.022 22.298C134.172 23.5113 133.748 25.1493 133.748 27.212C133.748 29.0147 134.103 30.5833 134.814 31.918C135.524 33.2353 136.694 33.894 138.324 33.894C139.121 33.894 139.84 33.816 140.482 33.66C141.123 33.504 141.704 33.3133 142.224 33.088L143.316 35.272C142.692 35.6013 141.912 35.8613 140.976 36.052C140.04 36.26 139.208 36.364 138.48 36.364C135.741 36.364 133.756 35.48 132.526 33.712C131.295 31.9267 130.68 29.7687 130.68 27.238C130.68 24.5687 131.356 22.3587 132.708 20.608C134.06 18.84 136.027 17.956 138.61 17.956C139.147 17.956 139.875 18.0427 140.794 18.216C141.712 18.3893 142.518 18.6667 143.212 19.048L142.302 21.18ZM148.249 32.308C148.249 32.724 148.413 33.114 148.743 33.478C149.072 33.8247 149.531 33.998 150.121 33.998C150.658 33.998 151.187 33.868 151.707 33.608C152.244 33.3307 152.729 32.9753 153.163 32.542V30.306H150.355C149.661 30.306 149.133 30.5053 148.769 30.904C148.422 31.3027 148.249 31.7707 148.249 32.308ZM146.403 24.196C146.888 23.8667 147.607 23.598 148.561 23.39C149.514 23.1647 150.259 23.052 150.797 23.052C152.287 23.052 153.544 23.4767 154.567 24.326C155.589 25.1753 156.101 26.2587 156.101 27.576V36H154.515C154.393 35.8267 154.272 35.6447 154.151 35.454C154.029 35.246 153.908 35.0553 153.787 34.882C153.336 35.2633 152.781 35.6013 152.123 35.896C151.464 36.1733 150.814 36.312 150.173 36.312C148.665 36.312 147.538 35.9393 146.793 35.194C146.065 34.4487 145.701 33.4867 145.701 32.308C145.701 31.0253 146.134 30.046 147.001 29.37C147.867 28.6767 149.003 28.33 150.407 28.33H153.137C153.085 27.5847 152.894 26.9693 152.565 26.484C152.235 25.9813 151.663 25.73 150.849 25.73C150.19 25.73 149.531 25.8167 148.873 25.99C148.231 26.1633 147.677 26.3627 147.209 26.588C147.07 26.1893 146.931 25.7907 146.793 25.392C146.654 24.9933 146.524 24.5947 146.403 24.196ZM162.411 32.906C162.793 33.1833 163.209 33.4087 163.659 33.582C164.11 33.738 164.535 33.816 164.933 33.816C166.164 33.816 167.022 33.3827 167.507 32.516C168.01 31.632 168.261 30.6787 168.261 29.656C168.261 28.512 168.027 27.524 167.559 26.692C167.109 25.86 166.233 25.444 164.933 25.444C164.535 25.444 164.11 25.5307 163.659 25.704C163.209 25.8773 162.793 26.1027 162.411 26.38V32.906ZM159.473 41.694V23.39H161.033L161.683 24.404C162.238 23.9707 162.879 23.624 163.607 23.364C164.353 23.0867 165.02 22.948 165.609 22.948C167.464 22.948 168.868 23.5893 169.821 24.872C170.792 26.1373 171.277 27.7233 171.277 29.63C171.277 31.5367 170.783 33.1313 169.795 34.414C168.825 35.6793 167.429 36.312 165.609 36.312C165.124 36.312 164.595 36.2253 164.023 36.052C163.451 35.8787 162.914 35.636 162.411 35.324V41.408L159.473 41.694ZM181.191 35.818C180.931 35.9913 180.567 36.1387 180.099 36.26C179.648 36.3987 179.232 36.468 178.851 36.468C177.447 36.468 176.338 36.104 175.523 35.376C174.708 34.648 174.301 33.5993 174.301 32.23V25.73H172.585V23.468H174.301V20.426L177.239 19.828V23.468H179.527L180.437 25.73H177.239V31.736C177.239 32.3773 177.386 32.9147 177.681 33.348C177.976 33.764 178.435 33.972 179.059 33.972C179.284 33.972 179.501 33.946 179.709 33.894C179.934 33.8247 180.151 33.7467 180.359 33.66L181.191 35.818ZM185.284 32.308C185.284 32.724 185.449 33.114 185.778 33.478C186.108 33.8247 186.567 33.998 187.156 33.998C187.694 33.998 188.222 33.868 188.742 33.608C189.28 33.3307 189.765 32.9753 190.198 32.542V30.306H187.39C186.697 30.306 186.168 30.5053 185.804 30.904C185.458 31.3027 185.284 31.7707 185.284 32.308ZM183.438 24.196C183.924 23.8667 184.643 23.598 185.596 23.39C186.55 23.1647 187.295 23.052 187.832 23.052C189.323 23.052 190.58 23.4767 191.602 24.326C192.625 25.1753 193.136 26.2587 193.136 27.576V36H191.55C191.429 35.8267 191.308 35.6447 191.186 35.454C191.065 35.246 190.944 35.0553 190.822 34.882C190.372 35.2633 189.817 35.6013 189.158 35.896C188.5 36.1733 187.85 36.312 187.208 36.312C185.7 36.312 184.574 35.9393 183.828 35.194C183.1 34.4487 182.736 33.4867 182.736 32.308C182.736 31.0253 183.17 30.046 184.036 29.37C184.903 28.6767 186.038 28.33 187.442 28.33H190.172C190.12 27.5847 189.93 26.9693 189.6 26.484C189.271 25.9813 188.699 25.73 187.884 25.73C187.226 25.73 186.567 25.8167 185.908 25.99C185.267 26.1633 184.712 26.3627 184.244 26.588C184.106 26.1893 183.967 25.7907 183.828 25.392C183.69 24.9933 183.56 24.5947 183.438 24.196ZM197.887 21.362C197.402 21.362 196.994 21.1973 196.665 20.868C196.336 20.5387 196.171 20.1313 196.171 19.646C196.154 19.1607 196.31 18.7533 196.639 18.424C196.986 18.0773 197.402 17.904 197.887 17.904C198.372 17.904 198.78 18.0773 199.109 18.424C199.456 18.7533 199.629 19.1607 199.629 19.646C199.629 20.1313 199.456 20.5387 199.109 20.868C198.78 21.1973 198.372 21.362 197.887 21.362ZM196.405 36V23.39H199.369V36H196.405ZM205.245 24.898C205.8 24.3087 206.502 23.8407 207.351 23.494C208.218 23.13 208.998 22.948 209.691 22.948C211.303 22.948 212.464 23.4247 213.175 24.378C213.903 25.314 214.267 26.484 214.267 27.888V36H211.329V28.07C211.329 27.2553 211.13 26.614 210.731 26.146C210.35 25.678 209.769 25.444 208.989 25.444C208.486 25.444 207.932 25.5913 207.325 25.886C206.718 26.1633 206.172 26.5187 205.687 26.952V36H202.749V23.39H204.361L205.245 24.898Z" fill="#2B1705"/>
<path d="M42.2736 9.76685L39.6575 12.3944C42.7291 15.9375 44.4213 20.4768 44.422 25.1748C44.4217 29.8729 42.7297 34.4124 39.6582 37.9558L42.2659 40.575C46.0283 36.3348 48.1093 30.8545 48.1138 25.1748C48.1133 19.4934 46.0349 14.0102 42.2736 9.76685ZM37.0396 15.0237L34.4171 17.6578C36.1139 19.7926 37.0382 22.4431 37.0385 25.1748C37.036 27.9055 36.1102 30.5543 34.4128 32.6874L37.0312 35.3173C39.4154 32.4797 40.7254 28.8877 40.7303 25.1748C40.7298 21.4599 39.4226 17.8647 37.0396 15.0237ZM31.7823 20.3042L29.1084 22.9897C29.4668 23.6618 29.6545 24.4124 29.655 25.1748C29.6545 25.9372 29.4667 26.6877 29.1084 27.3597L31.7742 30.0373C32.7921 28.6217 33.3422 26.921 33.3468 25.1748C33.3462 23.4267 32.7989 21.723 31.7823 20.3042Z" fill="#019546"/>
<path d="M25.125 0.758545C24.4676 0.758545 23.9383 1.42011 23.9383 2.24185V21.2383C24.323 21.121 24.7229 21.0612 25.125 21.061C25.527 21.0612 25.9269 21.121 26.3116 21.2383V2.24185C26.3116 1.42011 25.7824 0.758545 25.125 0.758545ZM8.7105 7.61099C8.41682 7.60713 8.14168 7.70448 7.93832 7.90874C7.47345 8.37561 7.56498 9.21926 8.14351 9.80033L21.5189 23.2344C21.9003 22.5184 22.4842 21.9319 23.1971 21.5489L9.82163 8.11484C9.49621 7.78797 9.08806 7.61591 8.7105 7.61099ZM2.29616 23.9789C1.47801 23.9789 0.819336 24.5105 0.819336 25.1708C0.819336 25.831 1.47801 26.3626 2.29616 26.3626H21.2097C21.0929 25.9762 21.0333 25.5746 21.0331 25.1708C21.0333 24.7669 21.0928 24.3653 21.2097 23.9789H2.29616ZM21.5189 27.1071L8.14351 40.5412C7.56498 41.1223 7.47345 41.9659 7.93832 42.4328C8.40316 42.8997 9.24309 42.8078 9.82163 42.2267L23.1971 28.7926C22.4842 28.4096 21.9003 27.8231 21.5189 27.1071ZM23.9383 29.1032V48.0997C23.9383 48.9214 24.4676 49.583 25.125 49.583C25.7824 49.583 26.3116 48.9214 26.3116 48.0997V29.1036C25.9269 29.2208 25.527 29.2805 25.125 29.2806C24.7229 29.2803 24.323 29.2206 23.9383 29.1032ZM25.125 17.1566C23.4205 17.1607 21.762 17.7128 20.3926 18.7322L23.1991 21.5509C23.7912 21.2312 24.4527 21.0629 25.125 21.061C25.798 21.0614 26.4606 21.2286 27.054 21.5478L29.8652 18.7242C28.4927 17.7061 26.8313 17.1566 25.125 17.1566ZM18.7145 20.4177C17.6996 21.7931 17.1499 23.4588 17.1459 25.1708C17.1499 26.8827 17.6996 28.5484 18.7145 29.9238L21.521 27.1051C21.2026 26.5104 21.0351 25.846 21.0331 25.1708C21.035 24.4955 21.2026 23.8312 21.5209 23.2364L18.7145 20.4177ZM23.1991 28.7906L20.3927 31.6093C21.7621 32.6287 23.4205 33.1808 25.125 33.1849C26.8313 33.1849 28.4926 32.6354 29.8652 31.6173L27.054 28.7937C26.4606 29.1129 25.798 29.2801 25.125 29.2806C24.4527 29.2786 23.7912 29.1104 23.1991 28.7906ZM25.1249 7.49862C20.8704 7.50301 16.7616 9.05556 13.5592 11.8688L16.3158 14.6375C18.7821 12.5524 21.9012 11.4072 25.1249 11.4029C28.3504 11.4029 31.4726 12.5454 33.9422 14.6293L36.6907 11.8688C33.4883 9.05554 29.3794 7.50299 25.1249 7.49862ZM11.8811 13.5543C9.08012 16.7707 7.53435 20.8976 7.53 25.1708C7.53435 29.4439 9.08011 33.5708 11.8811 36.7872L14.6297 34.0265C12.5549 31.5461 11.4174 28.4104 11.4173 25.1708C11.4215 21.9329 12.5618 18.8001 14.6377 16.323L11.8811 13.5543ZM33.9414 35.7113C31.4721 37.7953 28.3502 38.9381 25.1249 38.9386C21.8995 38.9384 18.7774 37.7959 16.3079 35.712L13.5593 38.4727C16.7616 41.286 20.8704 42.8385 25.1249 42.8429C29.3794 42.8385 33.4883 41.286 36.6907 38.4728L33.9414 35.7113Z" fill="#D97111"/>
</g>
<defs>
<clipPath id="clip0">
<rect width="215" height="50" fill="white"/>
</clipPath>
</defs>
</svg>
