<svg width="261" height="83" viewBox="0 0 261 83" fill="none" xmlns="http://www.w3.org/2000/svg">
<path d="M252.844 82.2812H8.15625C3.67031 82.2812 0 78.6109 0 74.125V8.875C0 4.38906 3.67031 0.71875 8.15625 0.71875H252.844C257.33 0.71875 261 4.38906 261 8.875V74.125C261 78.6109 257.33 82.2812 252.844 82.2812Z" fill="#E5E5E5"/>
<path d="M55.0547 41.0923C55.0547 34.7712 60.3563 31.7126 60.5602 31.5087C57.5016 27.2267 53.0156 26.615 51.3844 26.4111C47.5102 26.0032 43.6359 28.654 41.8008 28.654C39.7617 28.654 36.7031 26.4111 33.4406 26.4111C29.1586 26.4111 25.2844 28.8579 23.0414 32.7322C18.5555 40.4806 21.818 51.8993 26.1 58.2204C28.343 61.279 30.7899 64.7454 34.0524 64.5415C37.3149 64.3376 38.5383 62.5025 42.4125 62.5025C46.2867 62.5025 47.3063 64.5415 50.7727 64.5415C54.2391 64.5415 56.482 61.4829 58.5211 58.4243C60.968 54.9579 61.9875 51.4915 61.9875 51.2876C61.7836 51.0837 55.0547 48.6368 55.0547 41.0923Z" fill="#2B1705"/>
<path d="M48.7336 22.3328C50.3649 20.0898 51.5883 17.2351 51.3844 14.1765C48.9375 14.3804 45.675 15.8078 44.0438 18.0507C42.4125 19.8859 40.9852 22.9445 41.393 25.7992C44.0438 26.0031 46.8985 24.3718 48.7336 22.3328Z" fill="#2B1705"/>
<path d="M101.545 64.1335H97.0594L94.6125 56.3851H86.0484L83.8055 64.1335H79.5234L88.0875 37.8296H93.3891L101.545 64.1335ZM93.7969 53.1226L91.5539 46.1897C91.35 45.578 90.9422 43.7429 90.1266 41.296C89.9227 42.3155 89.5149 44.1507 88.9031 46.1897L86.6602 53.1226H93.7969Z" fill="#2B1705"/>
<path d="M123.363 54.5499C123.363 57.8124 122.548 60.2593 120.713 62.2983C119.081 63.9296 117.246 64.7452 114.799 64.7452C112.352 64.7452 110.517 63.9296 109.498 62.0944V72.0858H105.216V51.6952C105.216 49.6562 105.216 47.6171 105.012 45.3741H108.682L108.886 48.4327C110.313 46.1897 112.352 44.9663 115.207 44.9663C117.45 44.9663 119.285 45.7819 120.713 47.6171C122.548 49.2483 123.363 51.4913 123.363 54.5499ZM119.081 54.5499C119.081 52.7147 118.673 51.0835 117.858 50.064C117.042 48.8405 115.819 48.2288 114.188 48.2288C113.168 48.2288 112.148 48.6366 111.333 49.2483C110.517 49.8601 109.905 50.8796 109.702 51.8991C109.498 52.5108 109.498 52.9187 109.498 53.1226V56.3851C109.498 57.8124 109.905 58.8319 110.721 59.8515C111.537 60.871 112.76 61.2788 113.984 61.2788C115.615 61.2788 116.838 60.6671 117.654 59.4437C118.673 58.2202 119.081 56.589 119.081 54.5499Z" fill="#2B1705"/>
<path d="M145.181 54.5499C145.181 57.8124 144.366 60.2593 142.53 62.2983C140.899 63.9296 139.064 64.7452 136.617 64.7452C134.17 64.7452 132.335 63.9296 131.316 62.0944V72.0858H127.034V51.6952C127.034 49.6562 127.034 47.6171 126.83 45.3741H130.5L130.704 48.4327C132.131 46.1897 134.17 44.9663 137.025 44.9663C139.268 44.9663 141.103 45.7819 142.53 47.6171C144.366 49.2483 145.181 51.4913 145.181 54.5499ZM140.899 54.5499C140.899 52.7147 140.491 51.0835 139.676 50.064C138.86 48.8405 137.637 48.2288 136.005 48.2288C134.986 48.2288 133.966 48.6366 133.151 49.2483C132.335 49.8601 131.723 50.8796 131.52 51.8991C131.316 52.5108 131.316 52.9187 131.316 53.1226V56.3851C131.316 57.8124 131.723 58.8319 132.539 59.8515C133.355 60.871 134.578 61.2788 135.802 61.2788C137.433 61.2788 138.656 60.6671 139.472 59.4437C140.491 58.2202 140.899 56.589 140.899 54.5499Z" fill="#2B1705"/>
<path d="M169.65 56.7929C169.65 59.0359 168.834 60.8711 167.407 62.2984C165.776 63.9296 163.329 64.5414 160.27 64.5414C157.416 64.5414 155.173 63.9296 153.541 62.9101L154.561 59.4437C156.396 60.4632 158.435 61.075 160.678 61.075C162.309 61.075 163.533 60.6671 164.348 60.0554C165.164 59.2398 165.572 58.4242 165.572 57.2007C165.572 56.1812 165.164 55.1617 164.552 54.55C163.737 53.7343 162.513 53.1226 160.882 52.5109C156.192 50.8796 153.949 48.2289 153.949 44.9664C153.949 42.7234 154.765 41.0921 156.396 39.6648C158.027 38.2375 160.066 37.6257 162.921 37.6257C165.368 37.6257 167.203 38.0335 168.834 38.8492L167.815 42.3156C166.387 41.5 164.756 41.0921 162.717 41.0921C161.29 41.0921 160.066 41.5 159.251 42.1117C158.639 42.7234 158.231 43.539 158.231 44.5585C158.231 45.5781 158.639 46.3937 159.455 47.2093C160.066 47.821 161.494 48.4328 163.329 49.2484C165.572 50.064 167.203 51.2875 168.427 52.5109C169.038 53.5304 169.65 54.9578 169.65 56.7929Z" fill="#2B1705"/>
<path d="M183.516 48.4328H178.826V57.6086C178.826 59.8516 179.641 61.075 181.273 61.075C182.088 61.075 182.7 61.075 183.108 60.8711L183.312 64.1336C182.496 64.5414 181.477 64.5414 180.049 64.5414C178.418 64.5414 176.991 64.1336 176.175 63.1141C175.155 62.0945 174.748 60.4633 174.748 58.0164V48.4328H171.893V45.1703H174.748V41.7039L178.826 40.4805V45.1703H183.516V48.4328Z" fill="#2B1705"/>
<path d="M204.518 54.55C204.518 57.4046 203.702 59.8515 202.071 61.6867C200.236 63.5218 197.993 64.5414 195.138 64.5414C192.284 64.5414 190.041 63.5218 188.409 61.6867C186.778 59.8515 185.963 57.6086 185.963 54.7539C185.963 51.8992 186.778 49.4523 188.613 47.6171C190.245 45.782 192.691 44.7625 195.546 44.7625C198.401 44.7625 200.644 45.782 202.275 47.6171C203.702 49.4523 204.518 51.6953 204.518 54.55ZM200.032 54.7539C200.032 52.9187 199.624 51.4914 198.809 50.2679C197.993 48.8406 196.566 48.025 194.934 48.025C193.303 48.025 191.876 48.8406 191.06 50.2679C190.245 51.4914 189.837 53.1226 189.837 54.7539C189.837 56.589 190.245 58.0164 191.06 59.2398C191.876 60.6671 193.303 61.4828 194.934 61.4828C196.566 61.4828 197.789 60.6671 198.809 59.2398C199.624 58.0164 200.032 56.3851 200.032 54.7539Z" fill="#2B1705"/>
<path d="M218.18 48.8406C217.772 48.8406 217.364 48.6367 216.752 48.6367C215.325 48.6367 214.102 49.2484 213.286 50.268C212.674 51.2875 212.266 52.5109 212.266 53.9383V63.9297H207.984V50.8797C207.984 48.6367 207.984 46.8016 207.78 44.9664H211.451L211.655 48.6367H211.859C212.266 47.4133 213.082 46.3938 213.898 45.5781C214.917 44.9664 215.937 44.5586 216.956 44.5586C217.364 44.5586 217.772 44.5586 217.976 44.5586V48.8406H218.18Z" fill="#2B1705"/>
<path d="M236.939 53.7343C236.939 54.55 236.939 55.1617 236.735 55.5695H224.093C224.093 57.4046 224.705 58.832 225.928 59.8515C226.948 60.6671 228.375 61.2789 230.006 61.2789C231.841 61.2789 233.677 61.075 235.104 60.4632L235.716 63.3179C233.881 64.1336 231.841 64.5414 229.395 64.5414C226.54 64.5414 224.093 63.7257 222.462 61.8906C220.83 60.2593 220.015 57.8125 220.015 54.9578C220.015 52.1031 220.83 49.6562 222.258 47.821C223.889 45.782 226.132 44.7625 228.987 44.7625C231.638 44.7625 233.881 45.782 235.104 47.821C236.531 49.4523 236.939 51.4914 236.939 53.7343ZM233.065 52.7148C233.065 51.4914 232.861 50.4718 232.249 49.4523C231.434 48.2289 230.414 47.6171 228.987 47.6171C227.559 47.6171 226.54 48.2289 225.724 49.2484C225.113 50.064 224.705 51.2875 224.501 52.5109H233.065V52.7148Z" fill="#2B1705"/>
<path d="M92.5734 21.7212C92.5734 23.9642 91.9617 25.7993 90.5344 27.0228C89.3109 28.0423 87.4758 28.654 85.0289 28.654C83.8055 28.654 82.786 28.654 81.9703 28.4501V15.8079C82.9899 15.604 84.2133 15.604 85.6406 15.604C87.8836 15.604 89.5148 16.0118 90.7383 17.0313C91.7578 18.0509 92.5734 19.6821 92.5734 21.7212ZM90.3305 21.7212C90.3305 20.2938 89.9227 19.0704 89.107 18.2548C88.2914 17.4392 87.068 17.0313 85.6406 17.0313C85.0289 17.0313 84.4172 17.0314 84.0094 17.2353V26.8188C84.2133 26.8188 84.825 26.8188 85.4367 26.8188C87.068 26.8188 88.2914 26.411 89.107 25.5954C89.9227 24.7798 90.3305 23.3524 90.3305 21.7212Z" fill="#2B1705"/>
<path d="M103.992 23.7602C103.992 25.1875 103.584 26.411 102.769 27.2266C101.953 28.2461 100.73 28.654 99.3024 28.654C97.875 28.654 96.8555 28.2461 96.0399 27.2266C95.2242 26.411 94.8164 25.1875 94.8164 23.7602C94.8164 22.3329 95.2242 21.1094 96.0399 20.2938C96.8555 19.2743 98.0789 18.8665 99.5063 18.8665C100.934 18.8665 101.953 19.2743 102.769 20.2938C103.584 21.1094 103.992 22.3329 103.992 23.7602ZM101.953 23.7602C101.953 22.9446 101.749 22.129 101.341 21.5172C100.934 20.7016 100.322 20.4977 99.5063 20.4977C98.6906 20.4977 98.0789 20.9055 97.6711 21.5172C97.2633 22.129 97.0594 22.9446 97.0594 23.7602C97.0594 24.5758 97.2633 25.3915 97.6711 26.0032C98.0789 26.8188 98.6906 27.0227 99.5063 27.0227C100.322 27.0227 100.934 26.6149 101.341 25.7993C101.749 25.3915 101.953 24.5758 101.953 23.7602Z" fill="#2B1705"/>
<path d="M119.693 19.0703L116.838 28.45H115.003L113.78 24.3719C113.372 23.3523 113.168 22.3328 112.964 21.3133C112.76 22.3328 112.556 23.3523 112.148 24.3719L110.925 28.45H109.09L106.031 19.0703H108.07L109.09 23.5563C109.294 24.5758 109.498 25.5953 109.702 26.6148C109.905 25.7992 110.109 24.7797 110.517 23.5563L111.741 19.0703H113.372L114.595 23.3523C115.003 24.3719 115.207 25.3914 115.411 26.4109C115.615 25.3914 115.819 24.3719 116.023 23.3523L117.246 19.0703H119.693Z" fill="#2B1705"/>
<path d="M130.296 28.4501H128.257V23.1485C128.257 21.5173 127.645 20.7017 126.422 20.7017C125.81 20.7017 125.402 20.9056 124.995 21.3134C124.587 21.7212 124.383 22.3329 124.383 22.9446V28.4501H122.344V21.7212C122.344 20.9056 122.344 20.0899 122.344 19.0704H124.179V20.4978C124.383 20.0899 124.791 19.6821 125.198 19.2743C125.81 18.8665 126.422 18.6626 127.034 18.6626C127.849 18.6626 128.665 18.8665 129.277 19.4782C130.092 20.0899 130.296 21.1095 130.296 22.5368V28.4501Z" fill="#2B1705"/>
<path d="M136.005 28.45H133.966V14.7883H136.005V28.45Z" fill="#2B1705"/>
<path d="M148.24 23.7602C148.24 25.1875 147.832 26.411 147.016 27.2266C146.201 28.2461 144.977 28.654 143.55 28.654C142.123 28.654 141.103 28.2461 140.288 27.2266C139.472 26.411 139.064 25.1875 139.064 23.7602C139.064 22.3329 139.472 21.1094 140.288 20.2938C141.103 19.4782 142.327 18.8665 143.754 18.8665C145.181 18.8665 146.201 19.2743 147.016 20.2938C147.832 21.1094 148.24 22.3329 148.24 23.7602ZM146.201 23.7602C146.201 22.9446 145.997 22.129 145.589 21.5172C145.181 20.7016 144.57 20.4977 143.754 20.4977C142.938 20.4977 142.327 20.9055 141.919 21.5172C141.511 22.129 141.307 22.9446 141.307 23.7602C141.307 24.5758 141.511 25.3915 141.919 26.0032C142.327 26.8188 142.938 27.0227 143.754 27.0227C144.57 27.0227 145.181 26.6149 145.589 25.7993C145.997 25.3915 146.201 24.5758 146.201 23.7602Z" fill="#2B1705"/>
<path d="M158.231 28.45H156.396L156.192 27.4305C155.581 28.2461 154.561 28.654 153.541 28.654C152.726 28.654 151.91 28.45 151.502 27.8383C151.095 27.2266 150.687 26.6149 150.687 26.0032C150.687 24.7797 151.095 23.9641 152.114 23.3524C153.134 22.7407 154.357 22.5368 156.192 22.5368V22.3329C156.192 21.1094 155.581 20.4977 154.357 20.4977C153.338 20.4977 152.726 20.7016 151.91 21.1094L151.502 19.6821C152.318 19.0704 153.338 18.8665 154.765 18.8665C157.212 18.8665 158.435 20.0899 158.435 22.7407V26.2071C158.231 27.2266 158.231 27.8383 158.231 28.45ZM156.192 25.1875V23.7602C153.949 23.7602 152.726 24.3719 152.726 25.5954C152.726 26.0032 152.93 26.411 153.134 26.6149C153.338 26.8188 153.745 27.0227 154.153 27.0227C154.561 27.0227 154.969 26.8188 155.377 26.6149C155.784 26.411 155.988 26.0032 156.192 25.5954C156.192 25.5954 156.192 25.3915 156.192 25.1875Z" fill="#2B1705"/>
<path d="M170.058 28.45H168.223V27.0227C167.611 28.2461 166.591 28.6539 165.164 28.6539C163.941 28.6539 163.125 28.2461 162.309 27.4305C161.494 26.6148 161.29 25.3914 161.29 23.9641C161.29 22.5367 161.698 21.3133 162.513 20.2938C163.329 19.4781 164.348 19.0703 165.368 19.0703C166.591 19.0703 167.407 19.4781 168.019 20.2938V14.9922H170.058V26.0031C170.058 26.8187 170.058 27.6344 170.058 28.45ZM168.019 24.5758V22.9445C168.019 22.7406 168.019 22.5367 168.019 22.3328C167.815 21.925 167.611 21.5172 167.203 21.1094C166.795 20.7016 166.387 20.7016 165.776 20.7016C164.96 20.7016 164.348 21.1094 163.941 21.7211C163.533 22.3328 163.329 23.1484 163.329 24.168C163.329 25.1875 163.533 25.7992 163.941 26.4109C164.348 27.0227 164.96 27.4305 165.776 27.4305C166.387 27.4305 166.999 27.2266 167.407 26.6148C167.815 25.7992 168.019 25.1875 168.019 24.5758Z" fill="#2B1705"/>
<path d="M187.798 23.7602C187.798 25.1875 187.39 26.411 186.574 27.2266C185.759 28.2461 184.535 28.654 183.108 28.654C181.68 28.654 180.661 28.2461 179.845 27.2266C179.03 26.411 178.622 25.1875 178.622 23.7602C178.622 22.3329 179.03 21.1094 179.845 20.2938C180.661 19.2743 181.884 18.8665 183.312 18.8665C184.739 18.8665 185.759 19.2743 186.574 20.2938C187.39 21.1094 187.798 22.3329 187.798 23.7602ZM185.555 23.7602C185.555 22.9446 185.351 22.129 184.943 21.5172C184.535 20.7016 183.923 20.4977 183.108 20.4977C182.292 20.4977 181.68 20.9055 181.273 21.5172C180.865 22.129 180.661 22.9446 180.661 23.7602C180.661 24.5758 180.865 25.3915 181.273 26.0032C181.68 26.8188 182.292 27.0227 183.108 27.0227C183.923 27.0227 184.535 26.6149 184.943 25.7993C185.351 25.3915 185.555 24.5758 185.555 23.7602Z" fill="#2B1705"/>
<path d="M199.013 28.4501H196.973V23.1485C196.973 21.5173 196.362 20.7017 195.138 20.7017C194.527 20.7017 194.119 20.9056 193.711 21.3134C193.303 21.7212 193.099 22.3329 193.099 22.9446V28.4501H191.06V21.7212C191.06 20.9056 191.06 20.0899 191.06 19.0704H192.895V20.4978C193.099 20.0899 193.507 19.6821 193.915 19.2743C194.527 18.8665 195.138 18.6626 195.75 18.6626C196.566 18.6626 197.381 18.8665 197.993 19.4782C198.809 20.0899 199.013 21.1095 199.013 22.5368V28.4501Z" fill="#2B1705"/>
<path d="M212.878 20.7016H210.635V25.1875C210.635 26.411 211.043 26.8188 211.859 26.8188C212.266 26.8188 212.47 26.8188 212.878 26.8188V28.45C212.47 28.6539 211.859 28.654 211.247 28.654C210.431 28.654 209.82 28.45 209.412 27.8383C209.004 27.4305 208.8 26.411 208.8 25.3915V20.7016H207.373V19.0704H208.8V17.4391L210.839 16.8274V19.0704H213.082V20.7016H212.878Z" fill="#2B1705"/>
<path d="M223.889 28.45H221.85V23.1485C221.85 21.5172 221.238 20.7016 220.015 20.7016C218.995 20.7016 218.384 21.1094 217.976 22.129C217.976 22.3329 217.976 22.5368 217.976 22.9446V28.45H215.937V14.7883H217.976V20.4977C218.588 19.4782 219.607 18.8665 220.83 18.8665C221.646 18.8665 222.462 19.0704 222.87 19.6821C223.481 20.2938 223.889 21.5172 223.889 22.7407V28.45Z" fill="#2B1705"/>
<path d="M235.104 23.3523C235.104 23.7602 235.104 23.9641 235.104 24.3719H228.987C228.987 25.3914 229.394 26.0031 229.802 26.4109C230.414 26.8188 231.026 27.0227 231.841 27.0227C232.861 27.0227 233.677 26.8188 234.288 26.6148L234.696 28.0422C233.88 28.45 232.861 28.6539 231.637 28.6539C230.21 28.6539 228.987 28.2461 228.171 27.4305C227.355 26.6148 226.948 25.3914 226.948 23.9641C226.948 22.5367 227.355 21.3133 228.171 20.4977C228.987 19.4781 230.006 19.0703 231.434 19.0703C232.861 19.0703 233.88 19.4781 234.492 20.4977C234.9 21.1094 235.104 22.1289 235.104 23.3523ZM233.269 22.7406C233.269 22.1289 233.065 21.5172 232.861 21.1094C232.453 20.4977 232.045 20.2938 231.23 20.2938C230.618 20.2938 230.006 20.4977 229.598 21.1094C229.191 21.5172 228.987 22.1289 228.987 22.7406H233.269Z" fill="#2B1705"/>
</svg>
