<?xml version="1.0" encoding="UTF-8" standalone="no"?>
<!-- Created with Inkscape (http://www.inkscape.org/) -->

<svg
   width="229mm"
   height="162mm"
   viewBox="0 0 229 162"
   version="1.1"
   id="svg13402"
   inkscape:version="1.1 (c4e8f9e, 2021-05-24)"
   sodipodi:docname="audio-captain-logo.svg"
   xmlns:inkscape="http://www.inkscape.org/namespaces/inkscape"
   xmlns:sodipodi="http://sodipodi.sourceforge.net/DTD/sodipodi-0.dtd"
   xmlns="http://www.w3.org/2000/svg"
   xmlns:svg="http://www.w3.org/2000/svg">
  <sodipodi:namedview
     id="namedview13404"
     pagecolor="#ffffff"
     bordercolor="#666666"
     borderopacity="1.0"
     inkscape:pageshadow="2"
     inkscape:pageopacity="0.0"
     inkscape:pagecheckerboard="0"
     inkscape:document-units="mm"
     showgrid="false"
     units="mm"
     inkscape:zoom="0.6664191"
     inkscape:cx="585.9676"
     inkscape:cy="393.89627"
     inkscape:window-width="1312"
     inkscape:window-height="855"
     inkscape:window-x="289"
     inkscape:window-y="70"
     inkscape:window-maximized="0"
     inkscape:current-layer="g985" />
  <defs
     id="defs13399" />
  <g
     inkscape:label="Layer 1"
     inkscape:groupmode="layer"
     id="layer1">
    <g
       id="g985">
      <path
         id="path27796-4"
         style="fill:#019546;fill-opacity:1;stroke:#000000;stroke-width:0"
         d="m 169.56207,35.300357 -7.88266,7.882659 a 58.400131,58.400131 0 0 1 14.35636,38.341127 58.400131,58.400131 0 0 1 -14.35424,38.343107 l 7.85748,7.85747 A 69.523964,69.523964 0 0 0 187.15963,81.524143 69.523964,69.523964 0 0 0 169.56207,35.300357 Z m -15.77062,15.770595 -7.90221,7.902212 a 36.152443,36.152443 0 0 1 7.89891,22.550979 36.152443,36.152443 0 0 1 -7.91188,22.537907 l 7.88974,7.88963 a 47.276295,47.276295 0 0 0 11.146,-30.427537 47.276295,47.276295 0 0 0 -11.12056,-30.453191 z m -15.84129,15.841314 -8.05668,8.056677 a 13.904799,13.904799 0 0 1 1.6469,6.5552 13.904799,13.904799 0 0 1 -1.64703,6.554905 l 8.03254,8.032533 a 25.0286,25.0286 0 0 0 4.73837,-14.587438 25.0286,25.0286 0 0 0 -4.7141,-14.611877 z" />
      <path
         id="rect4384-5-2-6-2-3-4-3-5-7-0-9-6"
         style="fill:#d97111;fill-opacity:1;stroke:#6d6d6d;stroke-width:0;stroke-linecap:round;paint-order:fill markers stroke"
         d="m 117.89006,8.275874 c -1.98084,0 -3.5755,1.984691 -3.5755,4.449906 v 56.989478 a 12.329417,12.329417 0 0 1 3.5755,-0.532137 12.329417,12.329417 0 0 1 3.57554,0.532137 V 12.72578 c 0,-2.465215 -1.59467,-4.449906 -3.57554,-4.449906 z m -49.459366,20.55734 c -0.884882,-0.01159 -1.713935,0.280469 -2.326683,0.893241 -1.400719,1.40062 -1.124934,3.931551 0.618246,5.674781 l 40.302293,40.302219 a 12.329417,12.329417 0 0 1 5.05646,-5.056463 L 71.778719,30.344749 C 70.798187,29.364142 69.568352,28.84796 68.430694,28.833214 Z M 49.103287,77.937051 c -2.465215,0 -4.449904,1.594611 -4.449904,3.575453 0,1.980867 1.984689,3.575528 4.449904,3.575528 h 56.989533 a 12.329417,12.329417 0 0 1 -0.53219,-3.575528 12.329417,12.329417 0 0 1 0.53206,-3.575453 z m 57.921263,9.384503 -40.302293,40.302316 c -1.74318,1.74323 -2.018965,4.27421 -0.618246,5.67483 1.400621,1.40072 3.931479,1.12494 5.674708,-0.61825 L 112.08116,92.378041 a 12.329417,12.329417 0 0 1 -5.05661,-5.056487 z m 7.29001,5.988297 V 150.2993 c 0,2.46529 1.59466,4.4499 3.5755,4.4499 1.98087,0 3.57554,-1.98461 3.57554,-4.4499 V 93.311081 a 12.329417,12.329417 0 0 1 -3.57554,0.53088 12.329417,12.329417 0 0 1 -3.5755,-0.53211 z m 3.5755,-35.83974 a 24.042328,24.042328 0 0 0 -14.2592,4.726798 l 8.45617,8.456075 a 12.329417,12.329417 0 0 1 5.80303,-1.469863 12.329417,12.329417 0 0 1 5.81238,1.460542 l 8.47077,-8.470771 a 24.042328,24.042328 0 0 0 -14.28315,-4.702781 z m -19.315667,9.783261 a 24.042328,24.042328 0 0 0 -4.726528,14.259206 24.042328,24.042328 0 0 0 4.726528,14.259133 l 8.456297,-8.456149 a 12.329417,12.329417 0 0 1 -1.46994,-5.802984 12.329417,12.329417 0 0 1 1.46979,-5.803106 z m 13.512687,25.118729 -8.45608,8.456089 a 24.042328,24.042328 0 0 0 14.25906,4.72668 24.042328,24.042328 0 0 0 14.28304,-4.70273 l -8.47066,-8.470769 a 12.329417,12.329417 0 0 1 -5.81238,1.46059 12.329417,12.329417 0 0 1 -5.80298,-1.46986 z m 5.80286,-63.875999 A 53.016473,53.016473 0 0 0 83.040647,41.606701 l 8.30605,8.305952 a 41.303492,41.303492 0 0 1 26.543243,-9.703737 41.303492,41.303492 0 0 1 26.56798,9.679225 l 8.28152,-8.28144 A 53.016473,53.016473 0 0 0 117.88994,28.496102 Z M 77.984184,46.663164 a 53.016473,53.016473 0 0 0 -13.110525,34.84934 53.016473,53.016473 0 0 0 13.110525,34.849416 l 8.282082,-8.28208 A 41.303492,41.303492 0 0 1 76.586621,81.512504 41.303492,41.303492 0 0 1 86.29021,54.96914 Z m 66.471066,66.470986 a 41.303492,41.303492 0 0 1 -26.56531,9.68189 41.303492,41.303492 0 0 1 -26.567063,-9.67974 l -8.282082,8.2821 a 53.016473,53.016473 0 0 0 34.849145,13.11049 53.016473,53.016473 0 0 0 34.8495,-13.11036 z" />
    </g>
  </g>
</svg>
