<svg width="38" height="39" viewBox="0 0 38 39" fill="none" xmlns="http://www.w3.org/2000/svg">
<path d="M32.6861 7.15186L30.6552 9.19551C33.0398 11.9513 34.3535 15.4818 34.354 19.1358C34.3538 22.7899 33.0402 26.3206 30.6558 29.0766L32.6802 31.1137C35.601 27.8158 37.2165 23.5533 37.22 19.1358C37.2196 14.717 35.6061 10.4522 32.6861 7.15186ZM28.623 11.2405L26.587 13.2892C27.9043 14.9497 28.6219 17.0112 28.6221 19.1358C28.6202 21.2597 27.9014 23.3199 26.5837 24.979L28.6164 27.0244C30.4673 24.8174 31.4843 22.0237 31.4881 19.1358C31.4877 16.2465 30.4729 13.4502 28.623 11.2405ZM24.5416 15.3475L22.4659 17.4363C22.744 17.9591 22.8898 18.5428 22.8902 19.1358C22.8898 19.7288 22.744 20.3125 22.4658 20.8352L24.5353 22.9177C25.3256 21.8167 25.7525 20.4939 25.7561 19.1358C25.7557 17.7762 25.3308 16.4511 24.5416 15.3475Z" fill="#019546"/>
<path d="M19.3732 0.145508C18.8629 0.145508 18.452 0.660057 18.452 1.29919V16.0742C18.7507 15.983 19.0611 15.9365 19.3732 15.9363C19.6854 15.9365 19.9958 15.983 20.2944 16.0742V1.29919C20.2944 0.660057 19.8836 0.145508 19.3732 0.145508ZM6.63043 5.47519C6.40244 5.47218 6.18885 5.5479 6.03098 5.70677C5.67009 6.06989 5.74115 6.72606 6.19026 7.17801L16.5738 17.6267C16.8698 17.0698 17.3232 16.6137 17.8766 16.3158L7.49302 5.86707C7.24039 5.61284 6.92354 5.47901 6.63043 5.47519ZM1.65088 18.2058C1.01573 18.2058 0.504395 18.6192 0.504395 19.1328C0.504395 19.6463 1.01573 20.0598 1.65088 20.0598H16.3338C16.2431 19.7592 16.1969 19.4469 16.1967 19.1328C16.1968 18.8187 16.243 18.5063 16.3337 18.2058H1.65088ZM16.5738 20.6388L6.19026 31.0876C5.74115 31.5395 5.67009 32.1957 6.03098 32.5588C6.39183 32.922 7.04389 32.8505 7.49302 32.3985L17.8766 21.9498C17.3232 21.6519 16.8699 21.1957 16.5738 20.6388ZM18.452 22.1914V36.9664C18.452 37.6055 18.8629 38.1201 19.3732 38.1201C19.8836 38.1201 20.2944 37.6055 20.2944 36.9664V22.1917C19.9958 22.2828 19.6854 22.3292 19.3732 22.3293C19.0611 22.3291 18.7507 22.2826 18.452 22.1914ZM19.3732 12.8996C18.05 12.9027 16.7625 13.3322 15.6995 14.125L17.8781 16.3174C18.3378 16.0687 18.8513 15.9378 19.3732 15.9363C19.8958 15.9366 20.4101 16.0667 20.8707 16.3149L23.0532 14.1188C21.9876 13.3269 20.6979 12.8996 19.3732 12.8996ZM14.3967 15.436C13.6088 16.5057 13.1821 17.8013 13.179 19.1328C13.1821 20.4643 13.6088 21.7599 14.3967 22.8296L16.5754 20.6373C16.3283 20.1747 16.1982 19.658 16.1967 19.1328C16.1982 18.6076 16.3282 18.0909 16.5754 17.6283L14.3967 15.436ZM17.8781 21.9482L15.6995 24.1406C16.7626 24.9334 18.05 25.3628 19.3732 25.366C20.6979 25.366 21.9876 24.9387 23.0531 24.1468L20.8707 21.9506C20.4101 22.1989 19.8958 22.3289 19.3732 22.3293C18.8513 22.3278 18.3378 22.1969 17.8781 21.9482ZM19.3732 5.38779C16.0704 5.3912 12.8806 6.59874 10.3946 8.78683L12.5345 10.9402C14.4492 9.31854 16.8706 8.42776 19.3732 8.42444C21.8772 8.42447 24.301 9.31306 26.2182 10.9339L28.3519 8.78683C25.8658 6.59873 22.6761 5.39119 19.3732 5.38779ZM9.09181 10.0978C6.91737 12.5994 5.71737 15.8092 5.71398 19.1328C5.71736 22.4564 6.91736 25.6661 9.09181 28.1678L11.2256 26.0206C9.61491 24.0914 8.73184 21.6525 8.73174 19.1328C8.73502 16.6145 9.62022 14.1779 11.2318 12.2512L9.09181 10.0978ZM26.2175 27.331C24.3006 28.9519 21.8771 29.8407 19.3732 29.8411C16.8693 29.841 14.4455 28.9524 12.5284 27.3315L10.3946 29.4788C12.8807 31.6668 16.0704 32.8744 19.3732 32.8778C22.676 32.8744 25.8658 31.6669 28.3519 29.4788L26.2175 27.331Z" fill="#D97111"/>
</svg>
