<svg width="261" height="83" viewBox="0 0 261 83" fill="none" xmlns="http://www.w3.org/2000/svg">
<path d="M252.844 82.219H8.15625C3.67031 82.219 0 78.5487 0 74.0627V8.81274C0 4.32681 3.67031 0.656494 8.15625 0.656494H252.844C257.33 0.656494 261 4.32681 261 8.81274V74.0627C261 78.5487 257.33 82.219 252.844 82.219Z" fill="#E5E5E5"/>
<path fill-rule="evenodd" clip-rule="evenodd" d="M19.9828 40.6221V19.212C19.9828 17.9885 21.0023 16.969 22.0219 16.969C23.0414 16.969 23.4492 17.1729 24.0609 17.5807L63.4149 39.1948C64.2305 39.6026 64.6383 40.2143 64.6383 40.826C64.6383 41.4377 64.2305 42.0495 63.4149 42.4573L24.0609 64.0713C23.6531 64.2752 23.0414 64.6831 22.0219 64.6831C21.0023 64.6831 19.9828 63.6635 19.9828 62.4401V40.6221Z" fill="url(#paint0_linear)"/>
<path fill-rule="evenodd" clip-rule="evenodd" d="M45.4711 40.826L21.6141 16.969C21.818 16.969 21.818 16.969 22.0219 16.969C23.0414 16.969 23.4492 17.1729 24.0609 17.5807L53.0156 33.4854L45.4711 40.826Z" fill="url(#paint1_linear)"/>
<path fill-rule="evenodd" clip-rule="evenodd" d="M52.8117 47.9626L45.4711 40.6219L53.0156 33.0774L63.4149 38.7868C64.2305 39.1946 64.6383 39.8063 64.6383 40.418C64.6383 41.0297 64.2305 41.6415 63.4149 42.0493L52.8117 47.9626Z" fill="url(#paint2_linear)"/>
<path fill-rule="evenodd" clip-rule="evenodd" d="M21.818 64.2754L45.4711 40.6223L52.8117 47.9629L24.0609 63.6637C23.4492 64.0715 23.0414 64.2754 21.818 64.2754C22.0219 64.2754 22.0219 64.2754 21.818 64.2754Z" fill="url(#paint3_linear)"/>
<path fill-rule="evenodd" clip-rule="evenodd" d="M144.977 69.7807C143.958 68.9651 143.142 67.5377 142.734 66.7221L145.997 65.2948C146.201 65.7026 146.609 66.3143 147.016 66.926C147.832 67.7416 149.055 68.5573 150.279 68.5573C151.502 68.5573 152.93 67.9456 153.745 66.926C154.357 65.9065 154.765 64.887 154.765 63.4596V62.2362C152.318 65.2948 147.22 64.887 144.366 61.6245C141.307 58.362 141.307 52.8565 144.366 49.594C147.424 46.5354 151.91 46.1276 154.561 48.9823V47.5549H158.027V62.8479C158.027 66.7221 156.6 68.9651 154.765 70.3924C153.541 71.412 151.706 71.8198 150.075 71.8198C148.24 71.6159 146.405 71.0042 144.977 69.7807ZM230.414 70.5963L233.88 62.4401L227.763 48.3706H231.23L235.512 58.362L239.794 48.3706H243.26L233.88 70.5963H230.414ZM213.898 62.8479C212.878 61.8284 212.47 60.401 212.47 58.9737C212.47 57.7502 212.878 56.5268 213.694 55.7112C215.121 54.2838 217.16 53.6721 219.403 53.6721C220.83 53.6721 222.054 53.876 223.073 54.4877C223.073 52.0409 221.034 51.0213 219.403 51.0213C217.976 51.0213 216.548 51.837 215.937 53.2643L212.878 52.0409C213.49 50.6135 215.121 47.9627 219.199 47.9627C221.238 47.9627 223.277 48.5745 224.501 50.0018C225.724 51.4292 226.132 53.0604 226.132 55.3034V63.8674H222.666V62.4401C222.258 63.0518 221.442 63.4596 220.83 63.8674C220.015 64.2752 218.995 64.4791 217.976 64.4791C216.752 64.2752 214.917 63.8674 213.898 62.8479ZM105.216 55.5073C105.216 51.4292 108.274 46.9432 113.78 46.9432C119.081 46.9432 122.344 51.4292 122.344 55.5073C122.344 59.5854 119.285 64.0713 113.78 64.0713C108.274 64.0713 105.216 59.5854 105.216 55.5073ZM123.567 55.5073C123.567 51.4292 126.626 46.9432 132.131 46.9432C137.433 46.9432 140.695 51.4292 140.695 55.5073C140.695 59.5854 137.637 64.0713 132.131 64.0713C126.83 64.0713 123.567 59.5854 123.567 55.5073ZM82.1742 59.9932C77.0766 54.8956 77.2804 46.5354 82.3781 41.2338C85.0289 38.5831 88.2914 37.3596 91.7578 37.3596C95.0203 37.3596 98.2828 38.5831 100.73 41.0299L98.2828 43.6807C94.6125 40.0104 88.6992 40.2143 85.2328 43.8846C81.5625 47.7588 81.5625 53.6721 85.2328 57.5463C88.9031 61.4206 95.0203 61.6245 98.6906 57.7502C99.914 56.5268 100.322 54.8956 100.526 53.2643H91.9617V49.594H103.992C104.196 50.4096 104.196 51.4292 104.196 52.4487C104.196 55.5073 102.973 58.5659 100.934 60.6049C98.6906 62.8479 95.4281 64.0713 92.1656 64.0713C88.4953 63.8674 84.825 62.644 82.1742 59.9932ZM168.427 61.4206C165.368 58.1581 165.368 52.6526 168.427 49.1862C171.485 45.9237 176.583 45.9237 179.437 49.1862C180.457 50.2057 181.069 51.6331 181.68 53.0604L170.466 57.7502C171.077 59.1776 172.505 60.401 174.544 60.401C176.379 60.401 177.602 59.7893 178.826 57.9541L181.884 59.9932C181.477 60.401 181.069 60.8088 180.865 61.2167C177.398 64.6831 171.485 64.6831 168.427 61.4206ZM189.633 63.8674V41.2338H196.973C201.255 41.2338 204.722 44.2924 204.722 47.9627C204.722 51.6331 201.663 54.6917 197.789 54.6917H193.303V63.6635H189.633V63.8674ZM206.761 63.8674V41.2338H210.227V63.8674H206.761ZM160.678 63.4596V38.1752H164.348V63.4596H160.678ZM222.869 57.1385C222.054 56.5268 220.83 56.3229 219.607 56.3229C217.16 56.3229 215.733 57.5463 215.733 58.9737C215.733 60.401 217.16 61.2167 218.588 61.2167C220.627 61.2167 222.869 59.5854 222.869 57.1385ZM118.47 55.5073C118.47 53.0604 116.838 50.4096 113.78 50.4096C110.721 50.4096 109.09 53.0604 109.09 55.5073C109.09 57.9542 110.721 60.6049 113.78 60.6049C116.634 60.6049 118.47 57.9542 118.47 55.5073ZM136.821 55.5073C136.821 53.0604 135.19 50.4096 132.131 50.4096C129.073 50.4096 127.441 53.0604 127.441 55.5073C127.441 57.9542 129.073 60.6049 132.131 60.6049C135.19 60.6049 136.821 57.9542 136.821 55.5073ZM154.969 56.9346C154.969 56.7307 154.969 56.5268 155.173 56.3229C155.173 56.119 155.173 55.7112 155.173 55.5073C155.173 55.3034 155.173 54.8956 155.173 54.6917V54.4877C155.173 54.2838 154.969 53.876 154.969 53.6721C154.357 51.6331 152.522 50.2057 150.687 50.2057C148.24 50.2057 146.201 52.6526 146.201 55.3034C146.201 58.1581 148.24 60.401 150.891 60.401C152.522 60.6049 154.153 59.1776 154.969 56.9346ZM169.854 55.0995L177.398 51.837C176.583 50.4096 175.359 50.0018 174.34 50.0018C171.281 50.2057 169.446 53.4682 169.854 55.0995ZM201.052 48.1666C201.052 46.1276 199.42 44.7002 197.177 44.7002H193.099V51.837H197.381C199.42 51.837 201.052 50.2057 201.052 48.1666Z" fill="#2A1705"/>
<path fill-rule="evenodd" clip-rule="evenodd" d="M233.066 66.5189H232.861V66.3142H233.066H232.861V66.5189H233.066Z" fill="#2A1705"/>
<path fill-rule="evenodd" clip-rule="evenodd" d="M233.473 66.5189C233.473 66.3142 233.473 66.3142 233.473 66.5189C233.269 66.3142 233.269 66.3142 233.473 66.5189C233.269 66.5189 233.269 66.5189 233.473 66.5189ZM233.473 66.3142C233.473 66.5189 233.473 66.5189 233.473 66.3142C233.473 66.5189 233.269 66.5189 233.473 66.3142C233.269 66.3142 233.473 66.3142 233.473 66.3142Z" fill="#2A1705"/>
<path fill-rule="evenodd" clip-rule="evenodd" d="M233.677 66.3142H233.473H233.677V66.5189V66.3142Z" fill="#2A1705"/>
<path d="M79.3195 21.2509C79.3195 17.5806 81.9703 15.3376 85.2328 15.3376C87.4758 15.3376 88.9031 16.3572 89.9227 17.7845L88.2914 18.8041C87.6797 17.9884 86.6602 17.3767 85.2328 17.3767C82.9899 17.3767 81.3586 19.008 81.3586 21.4548C81.3586 23.9017 82.9899 25.533 85.2328 25.533C86.4563 25.533 87.4758 24.9212 87.8836 24.5134V22.6783H84.6211V20.8431H90.1266V25.1252C89.107 26.3486 87.4758 27.1642 85.4367 27.1642C81.9703 27.1642 79.3195 24.7173 79.3195 21.2509Z" fill="#2A1705"/>
<path d="M92.5734 26.9605V15.5417H100.322V17.3769H94.4086V20.2316H100.118V22.0667H94.4086V25.3292H100.322V27.1644L92.5734 26.9605Z" fill="#2A1705"/>
<path d="M106.031 26.9605V17.3769H102.565V15.5417H111.537V17.3769H108.07V26.9605H106.031Z" fill="#2A1705"/>
<path d="M118.47 26.9605V15.5417H120.509V26.9605H118.47Z" fill="#2A1705"/>
<path d="M126.014 26.9605V17.3769H122.548V15.5417H131.52V17.3769H128.053V26.9605H126.014Z" fill="#2A1705"/>
<path d="M138.045 21.2509C138.045 17.7845 140.491 15.3376 143.958 15.3376C147.424 15.3376 149.871 17.7845 149.871 21.2509C149.871 24.7173 147.424 27.1642 143.958 27.1642C140.491 27.1642 138.045 24.5134 138.045 21.2509ZM147.628 21.2509C147.628 18.8041 146.201 17.1728 143.754 17.1728C141.511 17.1728 139.88 19.008 139.88 21.2509C139.88 23.6978 141.307 25.3291 143.754 25.3291C146.201 25.3291 147.628 23.4939 147.628 21.2509Z" fill="#2A1705"/>
<path d="M160.066 26.9605L154.153 18.8042V26.9605H152.114V15.5417H154.153L160.066 23.4941V15.5417H162.105V26.9605H160.066Z" fill="#2A1705"/>
<defs>
<linearGradient id="paint0_linear" x1="33.1702" y1="14.0605" x2="44.5853" y2="60.9404" gradientUnits="userSpaceOnUse">
<stop stop-color="#006884"/>
<stop offset="1" stop-color="#8AD1D0"/>
</linearGradient>
<linearGradient id="paint1_linear" x1="19.2502" y1="20.7286" x2="50.3581" y2="37.5458" gradientUnits="userSpaceOnUse">
<stop stop-color="#24BBB6"/>
<stop offset="1" stop-color="#DBE692"/>
</linearGradient>
<linearGradient id="paint2_linear" x1="55.0433" y1="48.8192" x2="55.0433" y2="32.6119" gradientUnits="userSpaceOnUse">
<stop stop-color="#FCC072"/>
<stop offset="1" stop-color="#F58A5B"/>
</linearGradient>
<linearGradient id="paint3_linear" x1="25.2736" y1="68.4945" x2="49.8477" y2="43.485" gradientUnits="userSpaceOnUse">
<stop stop-color="#712B8F"/>
<stop offset="1" stop-color="#EA1D27"/>
</linearGradient>
</defs>
</svg>
